<svg width="32" height="32" viewBox="0 0 32 32" fill="none" xmlns="http://www.w3.org/2000/svg">
<path fill-rule="evenodd" clip-rule="evenodd" d="M24.375 0C29 0 32 3 32 7.62501V24.375C32 29 29 32 24.375 32H7.62501C3 32 0 29 0 24.375V7.62501C0 3 3 0 7.62501 0H24.375ZM12.9651 5.92058C10.3699 6.81306 8.15852 8.76497 6.9268 11.2351C6.49715 12.0873 6.18778 12.9913 5.99873 13.9298C5.52896 16.256 5.85551 18.7377 6.92108 20.8566C7.61429 22.2385 8.61111 23.4707 9.8142 24.4322C10.9542 25.342 12.2776 26.0214 13.6869 26.3957C15.4629 26.8736 17.3534 26.8621 19.1409 26.4533C20.7564 26.079 22.286 25.3017 23.5063 24.1731C24.7953 22.9813 25.7177 21.4151 26.2046 19.728C26.7373 17.8913 26.8061 15.9278 26.474 14.0392C23.1339 14.0392 19.7882 14.0392 16.4483 14.0392C16.4483 15.4326 16.4483 16.826 16.4483 18.2195C18.3846 18.2195 20.321 18.2195 22.2574 18.2195C22.034 19.5553 21.2434 20.776 20.1262 21.5302C19.4216 22.0082 18.6138 22.3133 17.7774 22.463C16.941 22.607 16.0702 22.6243 15.2337 22.4573C14.3801 22.2845 13.5723 21.9275 12.862 21.4266C11.7276 20.6263 10.8626 19.4574 10.4215 18.1388C9.96887 16.7973 9.96314 15.3059 10.4215 13.9701C10.7423 13.0258 11.2693 12.1564 11.9683 11.4424C12.8276 10.5557 13.9447 9.92231 15.1535 9.66322C16.1847 9.44442 17.2732 9.48472 18.2815 9.78988C19.1409 10.049 19.9315 10.5269 20.5788 11.1488C21.2319 10.4924 21.885 9.83595 22.5381 9.17955C22.8818 8.82833 23.2428 8.48859 23.575 8.12584C22.5839 7.20459 21.4152 6.4618 20.1434 5.98966C17.8519 5.13751 15.2738 5.12022 12.9651 5.92058Z" fill="white"/>
</svg>
