<svg width="32" height="32" viewBox="0 0 32 32" fill="none" xmlns="http://www.w3.org/2000/svg">
<path fill-rule="evenodd" clip-rule="evenodd" d="M24.375 0C29 0 32 3 32 7.62501V24.375C32 29 29 32 24.375 32H7.62501C3 32 0 29 0 24.375V7.62501C0 3 3 0 7.62501 0H24.375ZM5.24163 12.7587C5.24163 12.7587 7.38643 10.2 8.36456 12.7587C8.36456 12.7587 10.6974 20.4717 11.7134 23.7453C12.7291 27.0186 16.0403 25.7019 16.0403 25.7019C16.0403 25.7019 19.991 24.4976 24.7318 16.5963C29.4726 8.69495 25.5929 6.55834 25.5929 6.55834C25.5929 6.55834 22.2107 4.18002 18.787 8.24348C18.787 8.24348 17.6707 9.50535 17.1024 11.4723C17.1024 11.4723 20.0744 9.81148 20.4459 12.2371C20.8174 14.6627 17.5614 18.2246 17.5614 18.2246C17.5614 18.2246 16.2059 20.1475 15.5507 17.0227C15.5507 17.0227 14.1307 10.008 14.0214 9.22135C14.0214 9.22135 13.296 4.53663 9.05651 7.07156C9.05651 7.07156 6.52189 8.79148 4.00003 11.3664L5.24163 12.7587Z" fill="white"/>
</svg>
