<svg width="32" height="32" viewBox="0 0 32 32" fill="none" xmlns="http://www.w3.org/2000/svg">
<path fill-rule="evenodd" clip-rule="evenodd" d="M24.375 0C29 0 32 3 32 7.62501V24.375C32 29 29 32 24.375 32H7.62501C3 32 0 29 0 24.375V7.62501C0 3 3 0 7.62501 0H24.375ZM4.92737 8.96542C4.82887 6.91024 6.99448 5.52017 8.82656 6.4626C9.48401 6.80079 9.92166 7.34834 10.1326 7.9629C11.1262 7.61601 12.194 7.42744 13.3059 7.42744H18.6939C19.8557 7.42744 20.9694 7.6333 22.0005 8.01052C22.2049 7.37668 22.648 6.8095 23.3224 6.4626C25.1545 5.52017 27.3201 6.91024 27.2216 8.96542C27.1805 9.8212 26.7598 10.5252 26.1575 10.9752C27.508 12.6321 28.3177 14.7471 28.3177 17.0512C28.3177 22.3663 24.009 26.675 18.6939 26.675H13.3059C7.99087 26.675 3.68216 22.3663 3.68216 17.0512C3.68216 14.7141 4.51525 12.5716 5.90067 10.9044C5.3472 10.4529 4.9663 9.77753 4.92737 8.96542Z" fill="white"/>
</svg>
