<svg width="32" height="32" viewBox="0 0 32 32" fill="none" xmlns="http://www.w3.org/2000/svg">
<path d="M31.9982 15.1035C31.9982 13.4966 31.4208 12.1459 30.2261 11.0625C26.6943 7.86124 23.1687 4.65121 19.6307 1.45617C17.4836 -0.483096 14.523 -0.485595 12.3797 1.44992C8.84164 4.64496 5.31486 7.85249 1.78557 11.0575C0.595814 12.1371 0.000934657 13.4854 0.000934657 15.0947C0.00343415 18.9046 -0.00406433 22.7131 0.00343415 26.5229C0.00843314 29.6705 2.34296 31.9946 5.49482 31.9983C8.99286 32.0021 12.4909 31.9983 15.9889 31.9983C19.4657 31.9983 22.9425 31.9983 26.4206 31.9983C29.6712 31.9971 31.9882 29.6805 31.9957 26.4055C32.0044 22.6381 31.9969 18.8696 31.9982 15.1022V15.1035Z" fill="white"/>
</svg>
